<?xml version="1.0" standalone="no"?>
<svg viewBox="0 0 200 200" xmlns="http://www.w3.org/2000/svg">
  <path fill="#8A3FFC" d="M49.2,-76.8C62.8,-67.9,72,-52.5,76.2,-36.8C80.4,-21,79.5,-4.8,72.6,7.1C65.7,19,52.8,26.8,44.1,39.9C35.4,53,30.9,71.4,20.6,78.1C10.3,84.8,-5.8,79.8,-20.4,73.6C-34.9,67.4,-47.8,60,-52.5,48.7C-57.3,37.5,-54,22.4,-55.7,8.3C-57.3,-5.9,-63.9,-19,-63,-32.1C-62.2,-45.1,-53.9,-58.1,-42.2,-67.8C-30.4,-77.5,-15.2,-84.1,1.3,-86.1C17.8,-88.1,35.7,-85.7,49.2,-76.8Z" transform="translate(100 100)" />
</svg>
