<?xml version="1.0" standalone="no"?>
<svg viewBox="0 0 200 200" xmlns="http://www.w3.org/2000/svg">
  <path fill="#8A3FFC" d="M42,-76.7C52,-66.9,56.1,-50.9,64,-37C71.8,-23.2,83.3,-11.6,82.5,-0.5C81.7,10.6,68.5,21.3,60.1,34.2C51.7,47.1,48.2,62.2,39,73.1C29.8,84.1,14.9,90.9,1.8,87.7C-11.2,84.5,-22.5,71.4,-33.8,61.7C-45,51.9,-56.4,45.5,-65.6,35.8C-74.9,26.1,-81.9,13,-80.4,0.9C-78.8,-11.2,-68.5,-22.4,-61,-35C-53.4,-47.6,-48.5,-61.5,-38.8,-71.5C-29.1,-81.4,-14.5,-87.3,0.7,-88.5C16,-89.8,31.9,-86.4,42,-76.7Z" transform="translate(100 100)" />
</svg>
