<?xml version="1.0" encoding="UTF-8" standalone="no"?>
<svg
   xmlns:dc="http://purl.org/dc/elements/1.1/"
   xmlns:cc="http://creativecommons.org/ns#"
   xmlns:rdf="http://www.w3.org/1999/02/22-rdf-syntax-ns#"
   xmlns:svg="http://www.w3.org/2000/svg"
   xmlns="http://www.w3.org/2000/svg"
   xmlns:sodipodi="http://sodipodi.sourceforge.net/DTD/sodipodi-0.dtd"
   xmlns:inkscape="http://www.inkscape.org/namespaces/inkscape"
   version="1.1"
   id="svg2"
   xml:space="preserve"
   width="3066.6667"
   height="2666.6667"
   viewBox="0 0 3066.6667 2666.6667"
   sodipodi:docname="6531.eps"><metadata
     id="metadata8"><rdf:RDF><cc:Work
         rdf:about=""><dc:format>image/svg+xml</dc:format><dc:type
           rdf:resource="http://purl.org/dc/dcmitype/StillImage" /></cc:Work></rdf:RDF></metadata><defs
     id="defs6" /><sodipodi:namedview
     pagecolor="#ffffff"
     bordercolor="#666666"
     borderopacity="1"
     objecttolerance="10"
     gridtolerance="10"
     guidetolerance="10"
     inkscape:pageopacity="0"
     inkscape:pageshadow="2"
     inkscape:window-width="640"
     inkscape:window-height="480"
     id="namedview4" /><g
     id="g10"
     inkscape:groupmode="layer"
     inkscape:label="ink_ext_XXXXXX"
     transform="matrix(1.3333333,0,0,-1.3333333,0,2666.6667)"><g
       id="g12"
       transform="scale(0.1)"><path
         d="M 23000,20000 V 0 H 0 v 20000 h 23000"
         style="fill:#ebf3fa;fill-opacity:1;fill-rule:nonzero;stroke:none"
         id="path14" /><path
         d="m 13445.1,10080.9 c 0,0 -957.4,-1915.4 -1930,-3237.5 -387,-526.3 -776.3,-958.4 -1108.7,-1138.7 -325.3,-176.4 -600.68,-450.4 -828.56,-754.1 C 8987.65,4164.3 8715.29,3179.9 8715.29,3179.9 L 6228.33,6942.4 c 0,0 84.86,3677.8 383.47,4293 435.2,896.6 645.43,2708 812.62,3068.6 124.03,267.5 478.24,1649.4 512.21,1751 14.75,43.7 132.62,110.8 285.66,110.7 122.83,0 331.37,-118.7 383.96,-362.7 265.95,-1233 -54.17,-2046.4 -50.54,-2082.5 93.81,-947.7 -188.22,-1651.2 9.55,-1837.4 7.38,-6.9 21.03,-3.7 40.38,8.7 342.85,220.1 2470.76,3322.4 2732.86,3389.4 276.8,70.6 2106.6,-5200.3 2106.6,-5200.3"
         style="fill:#ffb27d;fill-opacity:1;fill-rule:nonzero;stroke:none"
         id="path16" /><path
         d="m 9463.48,3924.5 c 0,0 -33.87,-1671.9 -130.83,-3923.800781 H 3059.51 C 4493.44,3058.5 5740.06,5632.1 5740.06,5632.1 c 0,0 3571.85,-109.1 3723.42,-1707.6"
         style="fill:#f99746;fill-opacity:1;fill-rule:nonzero;stroke:none"
         id="path18" /><path
         d="m 15619.5,16563.3 -770.2,-1129 -755.7,-1108 c -46.1,-55.6 -99.4,-74.9 -157.1,-69.4 -181.4,17.2 -405.7,278.8 -580.6,423.6 l -17.7,14.6 c -230.6,190.7 -263.2,535.4 -72.5,765.9 l 1155.1,1396.3 v 0.1 l 342.6,414.1 c 190.8,230.6 535.5,263.2 765.9,72.4 l 17.8,-14.6 c 230.6,-190.7 263.1,-535.4 72.4,-766"
         style="fill:#ffb27d;fill-opacity:1;fill-rule:nonzero;stroke:none"
         id="path20" /><path
         d="m 14849.3,15434.3 -755.7,-1108 c -46.1,-55.6 -99.4,-74.9 -157.1,-69.4 l 484.3,2600.4 c 1.1,-14.6 83.4,-1181.3 428.5,-1423"
         style="fill:#efa26f;fill-opacity:1;fill-rule:nonzero;stroke:none"
         id="path22" /><path
         d="m 11515.1,6843.4 c -387,-526.3 -776.3,-958.4 -1108.7,-1138.7 -325.3,-176.4 -600.68,-450.4 -828.56,-754.1 -262.12,122.2 -560.9,265.5 -852.94,407.5 -355.63,172.8 -369.27,677.8 -20.95,864.9 3.4,1.8 6.74,3.7 10.01,5.6 326.4,186.7 660.86,846.2 660.86,846.2 l 2140.28,-231.4"
         style="fill:#efa26f;fill-opacity:1;fill-rule:nonzero;stroke:none"
         id="path24" /><path
         d="m 7919.31,15997.8 -201.51,-813.6 c 0,0 176.16,-72 289.28,-16.1 113.13,56 205.44,785.9 -87.77,829.7"
         style="fill:#ffc197;fill-opacity:1;fill-rule:nonzero;stroke:none"
         id="path26" /><path
         d="M 13714.2,6459 H 9381.19 c -426.2,0 -774.92,348.7 -774.92,774.9 v 9524.2 c 0,426.2 348.72,775 774.92,775 h 4333.01 c 426.2,0 774.9,-348.8 774.9,-775 V 7233.9 c 0,-426.2 -348.7,-774.9 -774.9,-774.9"
         style="fill:#2b478b;fill-opacity:1;fill-rule:nonzero;stroke:none"
         id="path28" /><path
         d="M 14197.6,16684.8 V 7381.3 c 0,-315.6 -256.4,-573.8 -569.6,-573.8 H 9467.4 c -313.22,0 -569.51,258.2 -569.51,573.8 v 9303.5 c 0,315.6 256.29,573.8 569.51,573.8 H 13628 c 313.2,0 569.6,-258.2 569.6,-573.8"
         style="fill:#c0d8fb;fill-opacity:1;fill-rule:nonzero;stroke:none"
         id="path30" /><path
         d="M 13628,17258.6 9518.87,6807.5 h -51.47 c -313.22,0 -569.51,258.2 -569.51,573.8 v 9303.5 c 0,315.6 256.29,573.8 569.51,573.8 H 13628"
         style="fill:#cbe1fd;fill-opacity:1;fill-rule:nonzero;stroke:none"
         id="path32" /><path
         d="m 12417.2,16912.6 h -1738.9 c -141.7,0 -257.5,115.9 -257.5,257.5 v 40.5 c 0,141.7 115.8,257.5 257.5,257.5 h 1738.9 c 141.6,0 257.5,-115.8 257.5,-257.5 v -40.5 c 0,-141.6 -115.9,-257.5 -257.5,-257.5"
         style="fill:#2b478b;fill-opacity:1;fill-rule:nonzero;stroke:none"
         id="path34" /><path
         d="m 15236.1,12299.7 -114.8,-43.6 -772.3,-293.5 c -18.1,-6.9 -36.5,-12.8 -54.8,-17.4 -255.7,-66.4 -527.8,69.9 -623.7,322.2 l -11.3,29.7 c -102.8,270.4 34.4,575.8 304.8,678.6 l 720,273.5 52.3,20 114.9,43.6 c 270.4,102.8 575.7,-34.4 678.4,-304.9 l 11.4,-29.6 c 102.7,-270.5 -34.4,-575.8 -304.9,-678.6"
         style="fill:#ffb27d;fill-opacity:1;fill-rule:nonzero;stroke:none"
         id="path36" /><path
         d="m 14608.9,12282 c -128.8,-48.9 -362.2,-135.5 -487,-153.5 -35.3,-5 -100.4,14.2 -161.1,80.7 -36.4,39.8 -71.2,96.5 -97.1,175.1 -12.1,37 -22.1,73.9 -26.4,111.8 -4.8,44.5 -3.5,89 4.3,133 7,39.7 34.1,75.8 73.6,94.9 0.2,0.1 0.5,0.1 0.6,0.3 132.7,63.4 311.6,140.6 468.4,183.6 108.4,30 218.1,-17.9 252.4,-112.8 l 16.2,-44.3 82.9,-227 c 34.3,-94.3 -21.5,-202.1 -126.8,-241.8"
         style="fill:#ffd3b6;fill-opacity:1;fill-rule:nonzero;stroke:none"
         id="path38" /><path
         d="m 14608.9,12282 c -128.8,-48.9 -362.2,-135.5 -487,-153.5 -35.3,-5 -100.4,14.2 -161.1,80.7 -6.4,15.1 -12.4,31 -18,48.1 -12.2,37 -22.2,73.8 -26.4,111.8 -4.8,44.5 -3.5,88.9 4.2,133 7.1,39.6 34.2,75.8 73.7,94.8 0.1,0.2 0.4,0.2 0.6,0.3 132.7,63.4 311.5,140.6 468.4,183.7 69.4,19.2 139.3,6.5 189.5,-30.1 l 82.9,-227 c 34.3,-94.3 -21.5,-202.1 -126.8,-241.8"
         style="fill:#ffc197;fill-opacity:1;fill-rule:nonzero;stroke:none"
         id="path40" /><path
         d="m 14885.7,11213.9 -595.6,-162.1 c -181,-49.3 -369.3,58.5 -418.6,239.4 l -18.4,67.5 c -49.2,180.9 58.5,369.3 239.5,418.6 l 595.6,162.1 c 180.9,49.3 369.3,-58.5 418.6,-239.5 l 18.3,-67.4 c 49.3,-180.9 -58.5,-369.3 -239.4,-418.6"
         style="fill:#ffb27d;fill-opacity:1;fill-rule:nonzero;stroke:none"
         id="path42" /><path
         d="m 14563.6,11243.1 c -109.4,-29.2 -307.1,-80.7 -410.8,-86.3 -37.7,-2.2 -113.2,29.7 -162.4,128.8 -12.2,24 -22.5,51.8 -30.5,84 -7.2,29.3 -12.8,58.2 -13.3,87.6 -0.7,34.5 3.7,68.6 13.3,101.9 8.6,30 33.6,56 67.3,68 0.3,0.2 0.4,0.2 0.6,0.3 113.5,40.1 265.9,88 397.8,111 91,15.9 177.4,-27.8 198.7,-103 l 15.4,-53.6 45.9,-161.1 c 21.2,-74.5 -32.6,-153.8 -122,-177.6"
         style="fill:#ffd3b6;fill-opacity:1;fill-rule:nonzero;stroke:none"
         id="path44" /><path
         d="m 14563.6,11243.1 c -109.4,-29.2 -307.1,-80.7 -410.8,-86.3 -37.7,-2.2 -113.2,29.7 -162.4,128.8 -6.7,27.3 -11.5,54.5 -12.1,82.2 -0.7,34.4 3.7,68.6 13.3,101.9 8.6,29.9 33.6,56.1 67.4,68.1 0.2,0.1 0.4,0.1 0.5,0.2 113.5,40.1 266,88 397.8,110.9 75.4,13.2 147.7,-14.6 182.4,-67.1 l 45.9,-161.1 c 21.2,-74.5 -32.6,-153.8 -122,-177.6"
         style="fill:#ffc197;fill-opacity:1;fill-rule:nonzero;stroke:none"
         id="path46" /><path
         d="m 5129.35,4363.6 c 0,0 1225.86,-1174.1 2052.25,-1627.4 l 625.68,443.8 v -654.7 c 0,0 1230.51,-217.6 1618.65,0 V 4310.6 L 5969.75,6043.2 5129.35,4363.6"
         style="fill:#ed7d2b;fill-opacity:1;fill-rule:nonzero;stroke:none"
         id="path48" /><path
         d="m 9687.01,2667.4 c -476.09,-97.7 -1502.22,276.3 -1502.22,276.3 l 165.5,1598.6 -1159.55,-1327.9 c -590.1,219.6 -1513,792.6 -2061.35,1149.2 -273,177.6 -453.21,301.5 -453.21,301.5 773.79,1245.2 1552.16,2409.8 1552.16,2409.8 228.46,-457.1 769.18,-853.9 1355.35,-1171.4 974.07,-527.6 2073.59,-835.8 2073.59,-835.8 -0.34,-950.1 29.73,-2400.3 29.73,-2400.3"
         style="fill:#dceaff;fill-opacity:1;fill-rule:nonzero;stroke:none"
         id="path50" /><path
         d="m 15217.3,13441.1 c -4.2,-1.5 -8.5,-3 -12.8,-4.4 l -780.8,-200.4 c -343.3,-88.2 -698.4,97.5 -789,412.8 l -46.4,161.5 c -87.1,302.6 100,619.1 419.1,721.7 l 257.8,66.2 523,134.3 c 343.3,88.2 698.3,-97.6 788.9,-412.8 l 46.5,-161.5 c 85.8,-298.6 -95.2,-610.4 -406.3,-717.4"
         style="fill:#ffb27d;fill-opacity:1;fill-rule:nonzero;stroke:none"
         id="path52" /><path
         d="m 14859.5,13659.1 -379.3,-171 c -0.6,-0.1 -1.3,-0.3 -2.4,-0.5 -15.2,-4.1 -30.6,-7.2 -45.9,-9.5 -6.3,-1 -12.8,-1.7 -19.2,-2.4 -2.7,-0.3 -5.3,-0.3 -8,-0.1 -41.8,1.4 -70.5,45.7 -52.4,85.2 35.9,78.1 45.6,168.4 21.5,257.2 l -9.1,33.1 c 0,0.2 -0.1,0.7 -0.3,1 l -29.3,107.7 c -23.3,85.8 -72.9,157.6 -137.5,209.6 -7.8,6.3 -15.8,12.3 -24,17.9 -75,52 -55.9,169.6 31.9,194 0.8,0.3 1.5,0.4 2.4,0.7 l 416.3,62.9 c 102.9,28 202,-51.2 230.1,-154.1 l 33.4,-122.7 71.2,-261.6 c 27.9,-103 3.5,-219.5 -99.4,-247.4"
         style="fill:#ffd3b6;fill-opacity:1;fill-rule:nonzero;stroke:none"
         id="path54" /><path
         d="m 14859.5,13659.1 -379.3,-171 c -0.6,-0.1 -1.3,-0.3 -2.4,-0.5 -8.9,-1.7 -36.7,-6.4 -73.1,-12 -41.8,1.4 -70.5,45.7 -52.4,85.2 35.9,78.1 45.6,168.4 21.5,257.2 l -9.1,33.1 c 0,0.2 -0.1,0.7 -0.3,1 l -29.3,107.7 c -23.3,85.8 -72.9,157.6 -137.5,209.6 13.4,19.6 33.4,35.1 59.7,42.5 0.7,0.3 1.5,0.4 2.4,0.7 l 416.3,63 c 86.7,23.5 170.5,-29 211.7,-107.5 l 71.2,-261.6 c 27.9,-103 3.5,-219.5 -99.4,-247.4"
         style="fill:#ffc197;fill-opacity:1;fill-rule:nonzero;stroke:none"
         id="path56" /><path
         d="m 8606.25,9379.8 c 0,0 -170.34,1486.9 -327.5,1776.8 -157.16,290 -290.14,870.7 -48.35,1302.1 241.78,431.6 325.31,1261.8 325.31,1261.8 93.81,-947.7 -188.22,-1651.2 9.55,-1837.4 7.38,-6.9 21.03,-3.7 40.38,8.7 l 0.61,-2512"
         style="fill:#efa26f;fill-opacity:1;fill-rule:nonzero;stroke:none"
         id="path58" /><path
         d="m 6495.23,11801.6 h 5915.57 c 205.4,0 371.9,166.5 371.9,371.8 v 2369.2 c 0,205.4 -166.5,371.9 -371.9,371.9 H 6495.23 c -205.36,0 -371.84,-166.5 -371.84,-371.9 v -2369.2 c 0,-205.3 166.48,-371.8 371.84,-371.8"
         style="fill:#699dee;fill-opacity:1;fill-rule:nonzero;stroke:none"
         id="path60" /><path
         d="m 12452.3,15308.7 h -2315.5 c -171.75,0 -311,139.3 -311,311.1 v 439.1 c 0,171.8 139.25,311 311,311 h 2315.5 c 171.8,0 311,-139.2 311,-311 v -439.1 c 0,-171.8 -139.2,-311.1 -311,-311.1"
         style="fill:#9abff6;fill-opacity:1;fill-rule:nonzero;stroke:none"
         id="path62" /><path
         d="M 12350.7,7528 H 9681.31 c -205.71,0 -372.47,166.8 -372.47,372.5 v 564.3 c 0,205.7 166.76,372.4 372.47,372.4 h 2669.39 c 205.8,0 372.5,-166.7 372.5,-372.4 v -564.3 c 0,-205.7 -166.7,-372.5 -372.5,-372.5"
         style="fill:#9abff6;fill-opacity:1;fill-rule:nonzero;stroke:none"
         id="path64" /><path
         d="m 13388.3,9379.8 h -2521.9 c -246.5,0 -446.3,199.8 -446.3,446.2 v 986.8 c 0,246.5 199.8,446.3 446.3,446.3 h 2521.9 c 246.4,0 446.2,-199.8 446.2,-446.3 V 9826 c 0,-246.4 -199.8,-446.2 -446.2,-446.2"
         style="fill:#f99746;fill-opacity:1;fill-rule:nonzero;stroke:none"
         id="path66" /><path
         d="m 20518.1,0 h -4600.6 c -220.6,147.902 -1366.3,929.398 -1840.4,1512 -100.4,123.5 -467.9,1187.5 -750.3,2051.4 -176.3,539.6 -319.5,1001.4 -343.7,1107.3 -8.4,36.9 -14,110 -17.4,209 v 1 c -12,353.3 4.4,1034.6 21.3,1575.8 l 0.1,2.5 0.3,7.1 c 0.8,23.8 1.5,47.2 2.3,70.4 v 0.8 c 0.1,2.3 0.1,4.7 0.2,7 3.1,94 6.1,182.6 8.9,263.2 7.1,201.4 13.1,352.9 15.6,412.2 l 1,27.6 c 0,0 0.1,0 0.2,0.1 7.3,4.1 228.6,122.2 524.4,-90.9 71.4,-51.5 137.4,-175.9 197.6,-338.2 38.5,-103.6 74.6,-222.6 108.2,-348 129.2,-482.3 221.9,-1058.9 271.4,-1213.3 79.8,-249.5 1020.4,-1346.7 1079.2,-1414.9 0.9,-1.2 1.9,-2.3 2.8,-3.4 v 1732.7 l -710.1,1900 -291.5,780 -146.5,392 c 0,0 -224.7,368.9 -413.2,812.7 -82.5,194.2 -158.1,402.7 -204.9,600.9 -11.2,47.2 -20.7,93.9 -28.3,139.6 0,0.1 0,0.1 0,0.2 -27.7,167.5 -29.6,322.9 8.9,449.4 68.7,225.3 223.5,267.7 342.4,263.1 12.3,-0.4 24.2,-1.5 35.7,-2.8 11.6,-1.4 23.1,-3.6 34.2,-6.6 20.9,-5.5 40.7,-13.9 59.1,-24.6 0.2,0 0.2,-0.1 0.3,-0.2 30.5,-17.8 56.8,-42.3 77.2,-72.2 0,0 100.4,-131.1 235.1,-307.3 88.6,-116 192.1,-251.5 291.5,-382.1 177,-232.7 341.4,-449.8 386.6,-513.4 244.3,-343.9 902.1,-1464.6 902.1,-1464.6 l 770,-32.3 c 122,-5.1 238.1,-53.7 327.3,-137 273.8,-255.7 864.1,-809 936.5,-891.3 0,-27 458.7,-247.6 813.1,-444 253.5,-107.1 735,-486.7 735,-486.7 99.8,-88.1 175.8,-175.8 214.3,-259.6 165.1,-359.3 612.9,-3484.2 827,-5028.998 C 20469.9,359 20514.6,25.6992 20518.1,0"
         style="fill:#ffb27d;fill-opacity:1;fill-rule:nonzero;stroke:none"
         id="path68" /><path
         d="m 15777.8,8135.5 c 0,0 713.3,-1164.4 807.7,-1216.8 94.5,-52.5 461.6,-125.9 503.6,0 41.9,125.9 -1311.3,1216.8 -1311.3,1216.8"
         style="fill:#efa26f;fill-opacity:1;fill-rule:nonzero;stroke:none"
         id="path70" /><path
         d="m 19363.3,6141 c -1.2,1.1 -2.4,2.1 -3.6,3.2 0,0 -481.5,379.6 -735,486.7 -325.4,180.4 -738.6,381 -804.1,433.6 75.5,-86.4 606.7,-687.6 811.2,-732.6 179.5,-39.6 587.2,-151.1 731.5,-190.9"
         style="fill:#efa26f;fill-opacity:1;fill-rule:nonzero;stroke:none"
         id="path72" /><path
         d="m 15199.2,3838.7 v 1732.7 c 0,0 411.6,-688.5 443.1,-1066.2 31.5,-377.5 -171,-988.9 -443.1,-666.5"
         style="fill:#efa26f;fill-opacity:1;fill-rule:nonzero;stroke:none"
         id="path74" /><path
         d="m 13705.7,10197.1 c -60.2,103.2 -168,290.3 -205.1,395 -10.4,29.6 -9.1,88.8 27.3,151.9 21.7,37.9 56.1,77.1 108,112.1 24.4,16.5 49.1,31.1 75.8,40.9 31.2,11.3 63.6,17.4 97,17.9 30.1,0.3 61.4,-17.2 82.9,-48.2 0.1,-0.1 0.1,-0.3 0.3,-0.4 71.4,-104.1 161.8,-245.8 223.3,-374.1 42.5,-88.6 29.1,-190.9 -32.9,-235.8 l -29,-21.2 -148.2,-108.2 c -61.6,-44.9 -150.4,-14.3 -199.4,70.1"
         style="fill:#ffd3b6;fill-opacity:1;fill-rule:nonzero;stroke:none"
         id="path76" /><path
         d="m 13705.7,10197.1 c -60.2,103.2 -168,290.3 -205.1,395 -10.4,29.6 -9.1,88.8 27.3,151.9 9.6,8.1 20,15.8 31.3,23.4 24.4,16.5 49.1,31.1 75.8,40.9 31.3,11.3 63.7,17.4 97,17.9 30.1,0.3 61.5,-17.2 82.9,-48.2 0.1,-0.1 0.2,-0.3 0.3,-0.4 71.5,-104.2 161.9,-245.9 223.3,-374.1 27.3,-56.8 31.6,-119.1 14.8,-168.3 l -148.2,-108.2 c -61.6,-44.9 -150.4,-14.3 -199.4,70.1"
         style="fill:#ffc197;fill-opacity:1;fill-rule:nonzero;stroke:none"
         id="path78" /><path
         d="m 17723.3,14638.3 h -964.4 c -253.7,0 -461.3,207.6 -461.3,461.3 v 794.4 c 0,253.7 207.6,461.2 461.3,461.2 h 964.4 c 253.7,0 461.2,-207.5 461.2,-461.2 v -794.4 c 0,-253.7 -207.5,-461.3 -461.2,-461.3"
         style="fill:#dfebfd;fill-opacity:1;fill-rule:nonzero;stroke:none"
         id="path80" /><path
         d="m 16739.6,15510.8 c 52.4,-138.1 501.7,-500.9 501.7,-500.9 0,0 146.5,119 282.1,247.2 101.5,94.8 196.4,194.7 218.9,253.7 53.2,137.3 -3.4,333.7 -199.7,367 -195.6,33.3 -301.3,-171.4 -301.3,-171.4 0,0 -105.6,204.7 -302,171.4 -34.1,-5.9 -64.1,-16.7 -89.9,-31.6 -122.3,-68.3 -153.1,-222.2 -109.8,-335.4"
         style="fill:#f99746;fill-opacity:1;fill-rule:nonzero;stroke:none"
         id="path82" /><path
         d="m 2214.49,10166.6 h 2889.15 c 230.31,0 418.74,-188.4 418.74,-418.7 V 8480.4 c 0,-211.6 -173.08,-384.6 -384.62,-384.6 h -74.22 l 139.2,-588 -873.9,588 H 2189.55 c -230.11,0 -418.38,188.2 -418.38,418.3 v 1209.2 c 0,243.8 199.49,443.3 443.32,443.3"
         style="fill:#dfebfd;fill-opacity:1;fill-rule:nonzero;stroke:none"
         id="path84" /><path
         d="m 2136.96,9246.6 h 3012.5 c 41.03,0 74.6,33.6 74.6,74.6 v 0 c 0,41 -33.57,74.6 -74.6,74.6 h -3012.5 c -41.02,0 -74.6,-33.6 -74.6,-74.6 v 0 c 0,-41 33.58,-74.6 74.6,-74.6"
         style="fill:#cbe1fd;fill-opacity:1;fill-rule:nonzero;stroke:none"
         id="path86" /><path
         d="m 2136.96,8912.7 h 3012.5 c 41.03,0 74.6,33.5 74.6,74.6 v 0 c 0,41 -33.57,74.6 -74.6,74.6 h -3012.5 c -41.02,0 -74.6,-33.6 -74.6,-74.6 v 0 c 0,-41.1 33.58,-74.6 74.6,-74.6"
         style="fill:#cbe1fd;fill-opacity:1;fill-rule:nonzero;stroke:none"
         id="path88" /><path
         d="m 2136.96,8578.7 h 3012.5 c 41.03,0 74.6,33.6 74.6,74.6 v 0 c 0,41.1 -33.57,74.6 -74.6,74.6 h -3012.5 c -41.02,0 -74.6,-33.5 -74.6,-74.6 v 0 c 0,-41 33.58,-74.6 74.6,-74.6"
         style="fill:#cbe1fd;fill-opacity:1;fill-rule:nonzero;stroke:none"
         id="path90" /><path
         d="m 3778.2,9765.3 h 1278.89 c 48.85,0 88.81,39.9 88.81,88.8 v 0 c 0,48.8 -39.96,88.8 -88.81,88.8 H 3778.2 c -48.84,0 -88.81,-40 -88.81,-88.8 v 0 c 0,-48.9 39.97,-88.8 88.81,-88.8"
         style="fill:#cbe1fd;fill-opacity:1;fill-rule:nonzero;stroke:none"
         id="path92" /><path
         d="m 2679.14,9765.3 h 769.54 c 38.61,0 70.2,31.5 70.2,70.1 v 37.3 c 0,38.6 -31.59,70.2 -70.2,70.2 h -769.54 c -38.61,0 -70.19,-31.6 -70.19,-70.2 v -37.3 c 0,-38.6 31.58,-70.1 70.19,-70.1"
         style="fill:#cbe1fd;fill-opacity:1;fill-rule:nonzero;stroke:none"
         id="path94" /><path
         d="m 16731.4,9523.8 1817.2,-594.1 -1088.5,1060.9 -110.5,-259.2 -467.8,-2.3 -150.4,-205.3"
         style="fill:#9ec3f6;fill-opacity:1;fill-rule:nonzero;stroke:none"
         id="path96" /><path
         d="m 18548.6,8929.7 -1410.3,1072.8 -1506.8,344.2 z"
         style="fill:#ffffff;fill-opacity:1;fill-rule:nonzero;stroke:none"
         id="path98" /><path
         d="M 17460.1,9990.6 18548.6,8929.7 17823,10415.9 Z"
         style="fill:#ffffff;fill-opacity:1;fill-rule:nonzero;stroke:none"
         id="path100" /><path
         d="m 6016,16293.5 -1698.53,-242.3 1127.16,768.2 57.32,-246.3 413.06,-74.8 100.99,-204.8"
         style="fill:#9ec3f6;fill-opacity:1;fill-rule:nonzero;stroke:none"
         id="path102" /><path
         d="m 4317.47,16051.2 1413.45,728.7 1385.33,69.7 z"
         style="fill:#ffffff;fill-opacity:1;fill-rule:nonzero;stroke:none"
         id="path104" /><path
         d="m 5444.63,16819.4 -1127.16,-768.2 872.57,1200.7 z"
         style="fill:#ffffff;fill-opacity:1;fill-rule:nonzero;stroke:none"
         id="path106" /><path
         d="m 8682.7,13475.5 c 0,-221.6 -74.6,-425.7 -200.3,-588.6 -41.68,-54.1 -88.97,-103.6 -140.97,-147.7 -168.16,-142.6 -385.83,-228.6 -623.63,-228.6 -216.11,0 -415.49,70.9 -576.33,191 -70.94,52.8 -134.31,115.2 -188.27,185.3 -125.69,162.9 -200.3,367 -200.3,588.6 0,532.9 431.95,964.9 964.9,964.9 532.95,0 964.9,-432 964.9,-964.9"
         style="fill:#ffffff;fill-opacity:1;fill-rule:nonzero;stroke:none"
         id="path108" /><path
         d="m 8105.48,13019.4 c -2.6,2.9 -5.1,5.6 -7.5,8.1 -11.1,8.5 -22.2,13.8 -66.8,21.5 -22.7,3.8 -54.2,8.3 -98.89,14.1 0,0 -9.6,1.1 -14.71,1.5 -3.4,0.3 -6.99,0.6 -11.2,1 -12.8,6.7 -16.1,59.8 -16,115.8 0,4.2 0.1,8.4 0.1,12.6 0.2,21.2 0.9,42.1 1.7,60.9 0,1.2 0.11,2.3 0.11,3.5 27.59,-2.3 45.89,-2.1 45.89,-2.1 51.4,4.1 83.5,141.9 95,253.3 0,0 25.4,61.1 25.4,127.2 0,37.2 -7.99,75.9 -32.99,106.3 -13.01,15.6 -25,25.9 -36.11,32.4 -3.2,3.2 -6.5,6.1 -9.69,8.9 -47.81,53.1 -242.21,252.1 -369.81,137 -3.3,11.5 -44.79,140.7 -246,98.4 12.5,1.3 101.7,9.7 127.5,-26.4 -3.5,1.5 -81.4,36.1 -130.5,5.9 -22.7,-13.8 -36.8,-42.5 -44.8,-72.7 -0.1,-0.2 -0.1,-0.4 -0.2,-0.6 0,-0.2 -0.1,-0.3 -0.1,-0.5 v -0.1 c -0.1,-0.3 -0.2,-0.6 -0.2,-0.9 -0.89,-4.1 -1.9,-8.2 -2.8,-12.3 -0.1,-0.6 -0.3,-1.2 -0.4,-1.9 0,-0.2 -0.1,-0.3 -0.1,-0.5 0,-0.1 0,-0.1 0,-0.2 -6,-31.2 -6,-61.5 -2.4,-76.2 7.5,-31.5 63,-125.3 99.81,-125.3 13.99,0 28.79,4.6 41.99,10.3 -5.7,-16.6 -10.8,-34.8 -15,-54.6 -39.09,-183.9 83.1,-323.6 146.4,-289 40.6,22.1 71.3,-48.9 71.3,-48.9 l 0.2,0.3 c -6,-134.5 -42.9,-222.3 -70.3,-244.2 -9.8,-1.1 -31,-3.7 -57.5,-7.9 v 0.1 c 0,0 -93.3,-10.2 -164.3,-41.1 -0.6,-0.2 -1.1,-0.4 -1.7,-0.7 -16.2,-6.7 -30,-14.2 -40.29,-22.4 -0.11,-0.2 -0.21,-0.3 -0.31,-0.3 v -0.1 c -5.4,-4.2 -9.8,-8.7 -12.99,-13.5 -1.7,-2 -3.11,-4 -4.2,-6.1 -23.71,-45.2 -47.61,-113.1 -70.51,-192.7 136.4,-101.8 305.51,-162 488.8,-162 201.71,0 386.31,72.9 528.9,193.9 -52.4,109.2 -112.19,165.5 -144.8,190.2"
         style="fill:#2b478b;fill-opacity:1;fill-rule:nonzero;stroke:none"
         id="path110" /><path
         d="M 10439.6,13961.6 H 9343.47 c -38.01,0 -69.1,31.1 -69.1,69.1 v 32.9 c 0,38 31.09,69.1 69.1,69.1 h 1096.13 c 38,0 69,-31.1 69,-69.1 v -32.9 c 0,-38 -31,-69.1 -69,-69.1"
         style="fill:#ffffff;fill-opacity:1;fill-rule:nonzero;stroke:none"
         id="path112" /><path
         d="M 10452.8,13346.3 H 9330.14 c -30.69,0 -55.79,25.1 -55.79,55.8 v 0 c 0,30.7 25.1,55.8 55.79,55.8 h 1122.66 c 30.7,0 55.8,-25.1 55.8,-55.8 v 0 c 0,-30.7 -25.1,-55.8 -55.8,-55.8"
         style="fill:#ffffff;fill-opacity:1;fill-rule:nonzero;stroke:none"
         id="path114" /><path
         d="m 9955.83,13082.3 h -638.75 c -23.5,0 -42.73,19.2 -42.73,42.7 v 26.1 c 0,23.5 19.23,42.8 42.73,42.8 h 638.75 c 23.51,0 42.73,-19.3 42.73,-42.8 v -26.1 c 0,-23.5 -19.22,-42.7 -42.73,-42.7"
         style="fill:#ffffff;fill-opacity:1;fill-rule:nonzero;stroke:none"
         id="path116" /><path
         d="m 11257.6,13082.3 h -1032.1 c -29.5,0 -53.6,24.1 -53.6,53.6 v 4.4 c 0,29.4 24.1,53.6 53.6,53.6 h 1032.1 c 29.5,0 53.6,-24.2 53.6,-53.6 v -4.4 c 0,-29.5 -24.1,-53.6 -53.6,-53.6"
         style="fill:#ffffff;fill-opacity:1;fill-rule:nonzero;stroke:none"
         id="path118" /><path
         d="m 12222,13346.3 h -1472.1 c -30.7,0 -55.8,25.1 -55.8,55.8 v 0 c 0,30.7 25.1,55.8 55.8,55.8 H 12222 c 30.6,0 55.8,-25.1 55.8,-55.8 v 0 c 0,-30.7 -25.2,-55.8 -55.8,-55.8"
         style="fill:#ffffff;fill-opacity:1;fill-rule:nonzero;stroke:none"
         id="path120" /><path
         d="M 10452.8,12818.2 H 9330.14 c -30.69,0 -55.79,25.1 -55.79,55.8 v 0 c 0,30.7 25.1,55.8 55.79,55.8 h 1122.66 c 30.7,0 55.8,-25.1 55.8,-55.8 v 0 c 0,-30.7 -25.1,-55.8 -55.8,-55.8"
         style="fill:#ffffff;fill-opacity:1;fill-rule:nonzero;stroke:none"
         id="path122" /><path
         d="m 12222,12818.2 h -1472.1 c -30.7,0 -55.8,25.1 -55.8,55.8 v 0 c 0,30.7 25.1,55.8 55.8,55.8 H 12222 c 30.6,0 55.8,-25.1 55.8,-55.8 v 0 c 0,-30.7 -25.2,-55.8 -55.8,-55.8"
         style="fill:#ffffff;fill-opacity:1;fill-rule:nonzero;stroke:none"
         id="path124" /><path
         d="m 11507.9,13961.6 h -787.2 c -32.5,0 -59.2,26.6 -59.2,59.2 v 52.7 c 0,32.6 26.7,59.2 59.2,59.2 h 787.2 c 32.6,0 59.2,-26.6 59.2,-59.2 v -52.7 c 0,-32.6 -26.6,-59.2 -59.2,-59.2"
         style="fill:#ffffff;fill-opacity:1;fill-rule:nonzero;stroke:none"
         id="path126" /><path
         d="m 10515.4,8465.3 h -779.29 c -27.01,0 -49.12,22.1 -49.12,49.1 v 23.4 c 0,27.1 22.11,49.2 49.12,49.2 h 779.29 c 27,0 49.1,-22.1 49.1,-49.2 v -23.4 c 0,-27 -22.1,-49.1 -49.1,-49.1"
         style="fill:#699dee;fill-opacity:1;fill-rule:nonzero;stroke:none"
         id="path128" /><path
         d="m 10524.8,8153.7 h -798.16 c -21.82,0 -39.67,17.9 -39.67,39.7 v 0 c 0,21.8 17.85,39.7 39.67,39.7 h 798.16 c 21.8,0 39.7,-17.9 39.7,-39.7 v 0 c 0,-21.8 -17.9,-39.7 -39.7,-39.7"
         style="fill:#699dee;fill-opacity:1;fill-rule:nonzero;stroke:none"
         id="path130" /><path
         d="m 10171.5,7966 h -454.14 c -16.72,0 -30.39,13.7 -30.39,30.4 v 18.6 c 0,16.7 13.67,30.3 30.39,30.3 h 454.14 c 16.7,0 30.4,-13.6 30.4,-30.3 v -18.6 c 0,-16.7 -13.7,-30.4 -30.4,-30.4"
         style="fill:#699dee;fill-opacity:1;fill-rule:nonzero;stroke:none"
         id="path132" /><path
         d="m 11097,7966 h -733.8 c -21,0 -38.1,17.2 -38.1,38.1 v 3.1 c 0,21 17.1,38.1 38.1,38.1 h 733.8 c 21,0 38.1,-17.1 38.1,-38.1 v -3.1 c 0,-20.9 -17.1,-38.1 -38.1,-38.1"
         style="fill:#699dee;fill-opacity:1;fill-rule:nonzero;stroke:none"
         id="path134" /><path
         d="M 11782.6,8153.7 H 10736 c -21.8,0 -39.6,17.9 -39.6,39.7 v 0 c 0,21.8 17.8,39.7 39.6,39.7 h 1046.6 c 21.8,0 39.7,-17.9 39.7,-39.7 v 0 c 0,-21.8 -17.9,-39.7 -39.7,-39.7"
         style="fill:#699dee;fill-opacity:1;fill-rule:nonzero;stroke:none"
         id="path136" /><path
         d="m 10524.8,7778.3 h -798.16 c -21.82,0 -39.67,17.8 -39.67,39.6 v 0 c 0,21.8 17.85,39.7 39.67,39.7 h 798.16 c 21.8,0 39.7,-17.9 39.7,-39.7 v 0 c 0,-21.8 -17.9,-39.6 -39.7,-39.6"
         style="fill:#699dee;fill-opacity:1;fill-rule:nonzero;stroke:none"
         id="path138" /><path
         d="M 11782.6,7778.3 H 10736 c -21.8,0 -39.6,17.8 -39.6,39.6 v 0 c 0,21.8 17.8,39.7 39.6,39.7 h 1046.6 c 21.8,0 39.7,-17.9 39.7,-39.7 v 0 c 0,-21.8 -17.9,-39.6 -39.7,-39.6"
         style="fill:#699dee;fill-opacity:1;fill-rule:nonzero;stroke:none"
         id="path140" /><path
         d="m 11275,8465.3 h -559.7 c -23.2,0 -42.1,18.9 -42.1,42.1 v 37.5 c 0,23.1 18.9,42.1 42.1,42.1 h 559.7 c 23.1,0 42.1,-19 42.1,-42.1 v -37.5 c 0,-23.2 -19,-42.1 -42.1,-42.1"
         style="fill:#699dee;fill-opacity:1;fill-rule:nonzero;stroke:none"
         id="path142" /><path
         d="m 11032.3,16043.5 h -779.2 c -27.1,0 -49.2,22.2 -49.2,49.2 v 23.4 c 0,27 22.1,49.1 49.2,49.1 h 779.2 c 27.1,0 49.2,-22.1 49.2,-49.1 v -23.4 c 0,-27 -22.1,-49.2 -49.2,-49.2"
         style="fill:#699dee;fill-opacity:1;fill-rule:nonzero;stroke:none"
         id="path144" /><path
         d="m 11041.8,15732 h -798.2 c -21.8,0 -39.7,17.9 -39.7,39.7 v 0 c 0,21.8 17.9,39.7 39.7,39.7 h 798.2 c 21.8,0 39.7,-17.9 39.7,-39.7 v 0 c 0,-21.8 -17.9,-39.7 -39.7,-39.7"
         style="fill:#699dee;fill-opacity:1;fill-rule:nonzero;stroke:none"
         id="path146" /><path
         d="m 10688.4,15544.3 h -454.1 c -16.7,0 -30.4,13.6 -30.4,30.4 v 18.5 c 0,16.7 13.7,30.4 30.4,30.4 h 454.1 c 16.7,0 30.4,-13.7 30.4,-30.4 v -18.5 c 0,-16.8 -13.7,-30.4 -30.4,-30.4"
         style="fill:#699dee;fill-opacity:1;fill-rule:nonzero;stroke:none"
         id="path148" /><path
         d="m 11614,15544.3 h -733.9 c -20.9,0 -38.1,17.1 -38.1,38.1 v 3.1 c 0,21 17.2,38.1 38.1,38.1 h 733.9 c 20.9,0 38.1,-17.1 38.1,-38.1 v -3.1 c 0,-21 -17.2,-38.1 -38.1,-38.1"
         style="fill:#699dee;fill-opacity:1;fill-rule:nonzero;stroke:none"
         id="path150" /><path
         d="M 12299.6,15732 H 11253 c -21.8,0 -39.7,17.9 -39.7,39.7 v 0 c 0,21.8 17.9,39.7 39.7,39.7 h 1046.6 c 21.8,0 39.6,-17.9 39.6,-39.7 v 0 c 0,-21.8 -17.8,-39.7 -39.6,-39.7"
         style="fill:#699dee;fill-opacity:1;fill-rule:nonzero;stroke:none"
         id="path152" /><path
         d="m 11791.9,16043.5 h -559.7 c -23.1,0 -42,19 -42,42.1 v 37.6 c 0,23.1 18.9,42 42,42 h 559.7 c 23.2,0 42.1,-18.9 42.1,-42 v -37.6 c 0,-23.1 -18.9,-42.1 -42.1,-42.1"
         style="fill:#699dee;fill-opacity:1;fill-rule:nonzero;stroke:none"
         id="path154" /><path
         d="M 11721.2,10781.4 H 10868 c -29.6,0 -53.8,24.2 -53.8,53.8 v 25.6 c 0,29.6 24.2,53.8 53.8,53.8 h 853.2 c 29.5,0 53.7,-24.2 53.7,-53.8 v -25.6 c 0,-29.6 -24.2,-53.8 -53.7,-53.8"
         style="fill:#ed7d2b;fill-opacity:1;fill-rule:nonzero;stroke:none"
         id="path156" /><path
         d="m 11731.5,10440.3 h -873.9 c -23.9,0 -43.4,19.6 -43.4,43.5 v 0 c 0,23.9 19.5,43.4 43.4,43.4 h 873.9 c 23.9,0 43.4,-19.5 43.4,-43.4 v 0 c 0,-23.9 -19.5,-43.5 -43.4,-43.5"
         style="fill:#ed7d2b;fill-opacity:1;fill-rule:nonzero;stroke:none"
         id="path158" /><path
         d="m 11344.6,10234.8 h -497.1 c -18.3,0 -33.3,15 -33.3,33.3 v 20.3 c 0,18.3 15,33.2 33.3,33.2 h 497.1 c 18.3,0 33.3,-14.9 33.3,-33.2 v -20.3 c 0,-18.3 -15,-33.3 -33.3,-33.3"
         style="fill:#ed7d2b;fill-opacity:1;fill-rule:nonzero;stroke:none"
         id="path160" /><path
         d="m 12357.9,10234.8 h -803.4 c -22.9,0 -41.7,18.8 -41.7,41.7 v 3.4 c 0,23 18.8,41.7 41.7,41.7 h 803.4 c 23,0 41.7,-18.7 41.7,-41.7 v -3.4 c 0,-22.9 -18.7,-41.7 -41.7,-41.7"
         style="fill:#ed7d2b;fill-opacity:1;fill-rule:nonzero;stroke:none"
         id="path162" /><path
         d="m 13108.5,10440.3 h -1145.8 c -23.9,0 -43.4,19.6 -43.4,43.5 v 0 c 0,23.9 19.5,43.4 43.4,43.4 h 1145.8 c 23.9,0 43.4,-19.5 43.4,-43.4 v 0 c 0,-23.9 -19.5,-43.5 -43.4,-43.5"
         style="fill:#ed7d2b;fill-opacity:1;fill-rule:nonzero;stroke:none"
         id="path164" /><path
         d="m 11731.5,10029.3 h -873.9 c -23.9,0 -43.4,19.5 -43.4,43.4 v 0 c 0,23.9 19.5,43.4 43.4,43.4 h 873.9 c 23.9,0 43.4,-19.5 43.4,-43.4 v 0 c 0,-23.9 -19.5,-43.4 -43.4,-43.4"
         style="fill:#ed7d2b;fill-opacity:1;fill-rule:nonzero;stroke:none"
         id="path166" /><path
         d="m 13108.5,10029.3 h -1145.8 c -23.9,0 -43.4,19.5 -43.4,43.4 v 0 c 0,23.9 19.5,43.4 43.4,43.4 h 1145.8 c 23.9,0 43.4,-19.5 43.4,-43.4 v 0 c 0,-23.9 -19.5,-43.4 -43.4,-43.4"
         style="fill:#ed7d2b;fill-opacity:1;fill-rule:nonzero;stroke:none"
         id="path168" /><path
         d="m 11731.5,9815.3 h -873.9 c -23.9,0 -43.4,19.5 -43.4,43.4 v 0 c 0,23.9 19.5,43.4 43.4,43.4 h 873.9 c 23.9,0 43.4,-19.5 43.4,-43.4 v 0 c 0,-23.9 -19.5,-43.4 -43.4,-43.4"
         style="fill:#ed7d2b;fill-opacity:1;fill-rule:nonzero;stroke:none"
         id="path170" /><path
         d="m 13108.5,9815.3 h -1145.8 c -23.9,0 -43.4,19.5 -43.4,43.4 v 0 c 0,23.9 19.5,43.4 43.4,43.4 h 1145.8 c 23.9,0 43.4,-19.5 43.4,-43.4 v 0 c 0,-23.9 -19.5,-43.4 -43.4,-43.4"
         style="fill:#ed7d2b;fill-opacity:1;fill-rule:nonzero;stroke:none"
         id="path172" /><path
         d="M 12552.7,10781.4 H 11940 c -25.4,0 -46.1,20.7 -46.1,46.1 v 41.1 c 0,25.3 20.7,46 46.1,46 h 612.7 c 25.4,0 46.1,-20.7 46.1,-46 v -41.1 c 0,-25.4 -20.7,-46.1 -46.1,-46.1"
         style="fill:#ed7d2b;fill-opacity:1;fill-rule:nonzero;stroke:none"
         id="path174" /><path
         d="m 9700.2,16676.6 -59.3,-42.6 -59.59,42.1 c 13.21,18.6 35.02,30.9 59.59,30.9 24.43,0 46.08,-12 59.3,-30.4"
         style="fill:#ffffff;fill-opacity:1;fill-rule:nonzero;stroke:none"
         id="path176" /><path
         d="m 9640.88,16810.7 c -59.6,0 -112.3,-29.7 -144.2,-75 l 37.6,-26.4 c 23.7,33.5 62.7,55.3 106.6,55.3 43.6,0 82.4,-21.5 106,-54.5 l 37.5,26.9 c -32.09,44.7 -84.5,73.7 -143.5,73.7"
         style="fill:#ffffff;fill-opacity:1;fill-rule:nonzero;stroke:none"
         id="path178" /><path
         d="m 9640.88,17007.8 c -126.09,0 -237.6,-62.7 -305.2,-158.6 l 37.7,-26.4 c 59.2,83.9 157.1,138.9 267.5,138.9 109.5,0 206.81,-54.1 266.2,-136.9 l 37.3,26.9 c -67.7,94.5 -178.4,156.1 -303.5,156.1"
         style="fill:#ffffff;fill-opacity:1;fill-rule:nonzero;stroke:none"
         id="path180" /><path
         d="m 9640.88,16899.9 c -89.7,0 -169.2,-44.4 -217.6,-112.4 l 37.6,-26.4 c 40.1,56 105.8,92.7 180,92.7 73.6,0 138.91,-36.1 179.1,-91.3 l 37.31,26.7 c -48.51,67.1 -127.41,110.7 -216.41,110.7"
         style="fill:#ffffff;fill-opacity:1;fill-rule:nonzero;stroke:none"
         id="path182" /><path
         d="m 9308.01,10396.2 c 0,-87.1 29.28,-167.2 78.66,-231.2 16.38,-21.3 35.01,-40.7 55.43,-58 20.31,-17.2 42.41,-32.3 65.98,-45 53.3,-28.6 114.11,-44.8 178.85,-44.8 80.9,0 155.75,25.3 217.24,68.4 3.13,2.1 6.17,4.4 9.2,6.6 27.83,20.8 52.73,45.2 73.94,72.8 49.39,64 78.69,144.1 78.69,231.2 0,209.2 -169.69,378.9 -379.07,378.9 -209.26,0 -378.92,-169.7 -378.92,-378.9"
         style="fill:#ffffff;fill-opacity:1;fill-rule:nonzero;stroke:none"
         id="path184" /><path
         d="m 9789.58,10153.1 -34.9,30.9 c -2.9,-0.6 -5.8,-1.1 -8.7,-1.6 -6.3,4.4 -13.2,8.7 -20.39,12.7 2.29,14.1 4.2,27.2 5.79,38.8 5.3,40.6 5.91,65.1 5.91,68.9 18.49,0.9 30.99,2.9 30.99,2.9 35,8.1 36.7,127.6 28.6,189.9 6.6,-0.1 13,0.8 19.5,3.7 26.5,11.7 28,51.8 28,51.8 0,0 -7.7,-14.3 -19,-18.9 0,0 44.3,60.7 -7.1,102.2 -51.2,41.6 -103.49,14.4 -133.3,12.6 -65.4,-4 -107.69,-7.9 -129,-50.9 -21.1,-42.4 -12.8,-159 27.6,-201.9 0.7,-4 1.4,-7.9 1.9,-11.9 2.4,-15.4 8,-28 16,-38.1 -9.1,-50.2 -29.8,-87.7 -48.39,-112.6 -12.61,-9.8 -24.11,-22.4 -34.81,-37.5 -0.3,-0.2 -0.7,-0.5 -0.7,-0.5 0,0 0.11,0 0.3,-0.1 -19.7,-28 -35.9,-64.5 -48.9,-107.3 -0.1,-0.2 -0.1,-0.4 -0.2,-0.6 21.41,-15.1 44.6,-27.8 69.1,-38 1.6,-0.7 3.2,-1.3 4.81,-2 0.4,-0.1 0.69,-0.3 1.09,-0.4 2.6,-1.1 5.3,-2.1 7.9,-3.1 6.41,-2.5 12.8,-4.8 19.3,-6.9 6.8,-2.2 13.7,-4.2 20.6,-6 3.21,-0.8 6.4,-1.6 9.6,-2.3 2.8,-0.7 5.6,-1.3 8.5,-1.8 0.4,-0.1 0.8,-0.2 1.2,-0.3 1.9,-0.4 3.8,-0.7 5.7,-1.1 4.4,-0.8 8.9,-1.6 13.4,-2.3 1,-0.1 2.1,-0.3 3.11,-0.4 2.5,-0.4 4.89,-0.7 7.39,-1 3.5,-0.4 7,-0.8 10.5,-1.2 3.9,-0.4 7.9,-0.7 11.9,-0.9 3.7,-0.3 7.5,-0.5 11.3,-0.6 3.91,-0.1 7.9,-0.2 11.9,-0.2 4.3,0 8.5,0.1 12.8,0.2 0.4,0 0.7,0 1.1,0.1 1,0 2.1,0 3.11,0.1 2.1,0 4.2,0.1 6.29,0.3 0.3,0.1 0.5,0.1 0.81,0.1 3.99,0.2 7.9,0.5 11.89,0.9 51.2,4.8 99.5,20 142.8,43.2 -22,37.7 -49.4,67.1 -75.3,91.1"
         style="fill:#699dee;fill-opacity:1;fill-rule:nonzero;stroke:none"
         id="path186" /><path
         d="m 13028.8,8193.4 c 0,-87.6 29.5,-168.3 79.2,-232.7 16.5,-21.4 35.2,-41 55.8,-58.4 66.5,-56.4 152.6,-90.4 246.6,-90.4 85.4,0 164.3,28 227.9,75.5 28,20.9 53.1,45.6 74.4,73.3 49.7,64.4 79.2,145.1 79.2,232.7 0,210.8 -170.8,381.6 -381.5,381.6 -210.8,0 -381.6,-170.8 -381.6,-381.6"
         style="fill:#ffffff;fill-opacity:1;fill-rule:nonzero;stroke:none"
         id="path188" /><path
         d="m 13605.4,7977.2 c -0.5,1 -1.1,2 -1.9,2.9 -1.5,2.2 -3.6,4.3 -6.1,6.3 l -0.1,0.1 c -4.8,3.9 -11.3,7.4 -18.8,10.5 -0.3,0.1 -0.5,0.2 -0.8,0.3 -33.1,14.5 -76.6,19.2 -76.6,19.2 -12.4,1.9 -22.2,3.1 -26.8,3.6 -12.8,10.3 -30,51.2 -32.8,113.9 l 0.1,-0.2 c 0,0 14.3,33.2 33.2,22.8 29.5,-16.1 86.5,49.1 68.3,134.8 -2,9.2 -4.4,17.7 -7,25.4 6.2,-2.6 13.1,-4.8 19.6,-4.8 17.1,0 43,43.8 46.5,58.5 3.6,14.7 -0.3,63 -23.8,77.3 -22.9,14.1 -59.2,-2.1 -60.8,-2.7 11.7,16.4 51.7,13.1 59,12.3 -93.4,19.4 -112.7,-40.5 -114.3,-45.9 -59.4,53.7 -150.1,-39.1 -172.4,-63.9 -1.5,-1.3 -3,-2.7 -4.5,-4.2 -5.1,-2.9 -10.8,-7.8 -16.8,-15 -11.7,-14.2 -15.4,-32.3 -15.4,-49.6 0,-30.8 11.8,-59.3 11.8,-59.3 5.4,-51.9 20.4,-116.2 44.4,-118.1 0,0 8.5,-0.1 21.3,1 0,-0.6 0.1,-1.1 0.1,-1.7 0.4,-8.7 0.7,-18.5 0.8,-28.3 v -5.9 c 0.1,-26.1 -1.5,-50.9 -7.4,-54 -2,-0.2 -3.7,-0.3 -5.2,-0.5 -2.4,-0.1 -6.9,-0.7 -6.9,-0.7 -20.8,-2.7 -35.6,-4.8 -46.1,-6.6 -20.8,-3.5 -26,-6 -31.1,-10 -1.2,-1.1 -2.4,-2.4 -3.6,-3.8 -15.2,-11.5 -43.1,-37.7 -67.5,-88.6 66.5,-56.4 152.6,-90.4 246.6,-90.4 85.5,0 164.3,28 227.9,75.5 -10.7,37.1 -21.8,68.8 -32.9,89.8"
         style="fill:#f99746;fill-opacity:1;fill-rule:nonzero;stroke:none"
         id="path190" /><path
         d="m 13028.8,15862.1 c 0,-87.6 29.5,-168.3 79.2,-232.8 16.5,-21.4 35.2,-40.9 55.8,-58.4 66.5,-56.4 152.6,-90.4 246.6,-90.4 85.4,0 164.3,28.1 227.9,75.6 28,20.8 53.1,45.5 74.4,73.2 49.7,64.5 79.2,145.2 79.2,232.8 0,210.7 -170.8,381.5 -381.5,381.5 -210.8,0 -381.6,-170.8 -381.6,-381.5"
         style="fill:#ffffff;fill-opacity:1;fill-rule:nonzero;stroke:none"
         id="path192" /><path
         d="m 13605.4,15645.9 c -0.5,1 -1.1,1.9 -1.9,2.9 -1.5,2.2 -3.6,4.3 -6.1,6.3 l -0.1,0.1 c -4.8,3.8 -11.3,7.3 -18.8,10.5 -0.3,0.1 -0.5,0.2 -0.8,0.3 -33.1,14.4 -76.6,19.2 -76.6,19.2 v -0.1 c -12.4,2 -22.2,3.2 -26.8,3.7 -3.1,2.5 -6.4,6.6 -9.7,12.5 v 0.1 c -10.6,18.6 -21,53.6 -23.1,101.3 l 0.1,-0.2 c 0,0 14.3,33.1 33.2,22.8 29.5,-16.1 86.5,49 68.3,134.7 -2,9.3 -4.4,17.8 -7,25.5 6.2,-2.6 13.1,-4.8 19.6,-4.8 17.1,0 43,43.8 46.5,58.4 3.6,14.8 -0.3,63.1 -23.8,77.4 -22.9,14 -59.2,-2.1 -60.8,-2.8 11.7,16.4 51.8,13.1 59,12.4 -93.4,19.4 -112.7,-40.6 -114.3,-45.9 -59.4,53.6 -150.1,-39.2 -172.4,-63.9 -1.5,-1.3 -3,-2.7 -4.5,-4.2 -5.1,-3 -10.8,-7.8 -16.8,-15.1 -11.7,-14.1 -15.4,-32.2 -15.4,-49.5 0,-30.9 11.8,-59.3 11.8,-59.3 5.4,-52 20.4,-116.2 44.4,-118.1 0,0 8.5,-0.1 21.3,0.9 0,-0.5 0.1,-1 0.1,-1.6 0.4,-8.7 0.7,-18.5 0.8,-28.4 v -5.9 c 0.1,-26.1 -1.5,-50.8 -7.4,-54 -2,-0.1 -3.7,-0.3 -5.2,-0.4 -2.4,-0.2 -6.9,-0.7 -6.9,-0.7 -20.8,-2.7 -35.6,-4.8 -46.1,-6.6 -20.8,-3.6 -26,-6 -31.1,-10 -1.2,-1.2 -2.4,-2.5 -3.6,-3.8 -15.2,-11.5 -43.1,-37.8 -67.5,-88.7 3.6,-3.1 7.3,-6.1 11.1,-9 0.6,-0.5 1.3,-1 1.9,-1.5 2.8,-2.2 5.6,-4.3 8.5,-6.3 2,-1.6 4,-3.1 6.1,-4.5 2.1,-1.5 4.2,-2.9 6.3,-4.2 3,-2.2 6.1,-4.2 9.3,-6.1 2.1,-1.4 4.2,-2.7 6.4,-4 2.6,-1.6 5.3,-3.2 8,-4.7 3,-1.7 6,-3.4 9,-5 0.3,-0.1 0.5,-0.3 0.8,-0.4 0.1,-0.1 0.3,-0.2 0.5,-0.3 h 0.1 c 0.4,-0.2 0.9,-0.5 1.3,-0.7 2.4,-1.3 4.8,-2.5 7.2,-3.7 0.2,0 0.3,-0.1 0.5,-0.2 0.7,-0.4 1.5,-0.8 2.2,-1.1 1.3,-0.7 2.7,-1.4 4.1,-2 1.3,-0.6 2.6,-1.2 4,-1.9 3,-1.4 6.2,-2.8 9.3,-4.1 3.1,-1.3 6.3,-2.6 9.4,-3.8 1.5,-0.6 2.9,-1.2 4.3,-1.7 1.4,-0.5 2.8,-1.1 4.3,-1.6 2.9,-1.1 5.9,-2.1 8.8,-3.1 3.1,-1.1 6.1,-2 9.2,-3 2.6,-0.8 5.2,-1.6 7.8,-2.4 0.3,-0.1 0.5,-0.1 0.8,-0.2 1.6,-0.5 3.3,-1 5,-1.4 9.1,-2.5 18.4,-4.7 27.8,-6.5 4.1,-0.8 8.2,-1.6 12.3,-2.2 1.1,-0.2 2.1,-0.4 3.2,-0.5 0.2,0 0.5,-0.1 0.7,-0.1 0.1,0 0.3,0 0.4,-0.1 2.7,-0.4 5.2,-0.7 8,-1 0.6,-0.1 1.1,-0.2 1.7,-0.2 0.4,-0.1 0.8,-0.1 1.2,-0.2 2.5,-0.4 5,-0.6 7.4,-0.8 0.4,0 0.9,-0.1 1.3,-0.1 0.7,-0.1 1.5,-0.2 2.3,-0.3 4.5,-0.4 8.9,-0.7 13.4,-0.9 h 0.7 c 1.4,-0.1 2.7,-0.2 4.2,-0.2 0.9,0 1.7,-0.1 2.6,-0.1 4.4,-0.2 8.8,-0.3 13.2,-0.3 85.5,0 164.3,28.1 227.9,75.6 -10.7,37.1 -21.8,68.7 -32.9,89.8"
         style="fill:#f99746;fill-opacity:1;fill-rule:nonzero;stroke:none"
         id="path194" /><path
         d="M 18206.7,711.5 16832.4,0 h -914.9 c -220.6,147.902 -1366.3,929.398 -1840.4,1512 -100.4,123.5 -467.9,1187.5 -750.3,2051.4 v 0.4 c 37.5,-114.7 825.6,-1793.2 1050,-1984 224.4,-190.7 1402.6,-1301.601 1728,-1290.3 315.2,10.801 1993.2,397 2097.2,420.902 1.6,0.297 3.1,0.7 4.7,1.098"
         style="fill:#efa26f;fill-opacity:1;fill-rule:nonzero;stroke:none"
         id="path196" /><path
         d="m 20971.9,0 h -4954.6 c 248.5,97.5 1199.2,460.699 2184.7,710.402 1.6,0.297 3.1,0.7 4.7,1.098 846.4,214.102 1717.7,343.9 2190.9,149.199 l 3.4,-5.097 L 20971.9,0"
         style="fill:#d2e3fc;fill-opacity:1;fill-rule:nonzero;stroke:none"
         id="path198" /><path
         d="m 12989.8,6544.3 c 0.1,0 0.2,0 0.4,0.2 83.4,30.6 200.7,50.8 257.7,-44.5 88.8,-148.2 -241,-1455.8 -282.2,-1620.3 l 24.1,1664.6"
         style="fill:#efa26f;fill-opacity:1;fill-rule:nonzero;stroke:none"
         id="path200" /><path
         d="m 13015.4,7247.4 -28.3,-790.9 c 0,0 166.3,-27.1 260.8,43.5 94.6,70.6 44.5,756.7 -232.5,747.4"
         style="fill:#ffc197;fill-opacity:1;fill-rule:nonzero;stroke:none"
         id="path202" /><path
         d="m 9687.01,2667.4 c -476.09,-97.7 -1502.22,276.3 -1502.22,276.3 l 165.5,1598.6 -1159.55,-1327.9 c -590.1,219.6 -1513,792.6 -2061.35,1149.2 1405.17,153.2 2454.3,1539.9 2454.3,1539.9 974.07,-527.6 2073.59,-835.8 2073.59,-835.8 -0.34,-950.1 29.73,-2400.3 29.73,-2400.3"
         style="fill:#cbe1fd;fill-opacity:1;fill-rule:nonzero;stroke:none"
         id="path204" /><path
         d="m 6419.86,4119.4 c 0.99,106.6 88.2,192.2 194.79,191.2 106.59,-1 192.2,-88.2 191.21,-194.8 -0.99,-106.6 -88.19,-192.2 -194.78,-191.2 -106.59,1 -192.2,88.2 -191.22,194.8"
         style="fill:#f99746;fill-opacity:1;fill-rule:nonzero;stroke:none"
         id="path206" /></g></g></svg>
